<?xml version="1.0" encoding="UTF-8"?>
<svg version="1.1" xmlns="http://www.w3.org/2000/svg" width="300" height="300">
<path d="M0 0 C14.52 0 29.04 0 44 0 C44 12.21 44 24.42 44 37 C38.06 37 32.12 37 26 37 C26 62.08 26 87.16 26 113 C33.26 113 40.52 113 48 113 C48 115.31 48 117.62 48 120 C-24.6 120 -97.2 120 -172 120 C-172 117.69 -172 115.38 -172 113 C-168.37 113 -164.74 113 -161 113 C-161 93.53 -161 74.06 -161 54 C-162.98 54 -164.96 54 -167 54 C-167 45.09 -167 36.18 -167 27 C-165.02 27 -163.04 27 -161 27 C-161 22.05 -161 17.1 -161 12 C-113.15 12 -65.3 12 -16 12 C-16 16.95 -16 21.9 -16 27 C-14.35 27 -12.7 27 -11 27 C-11 35.91 -11 44.82 -11 54 C-12.65 54 -14.3 54 -16 54 C-16 73.47 -16 92.94 -16 113 C-4.78 113 6.44 113 18 113 C18 87.92 18 62.84 18 37 C12.06 37 6.12 37 0 37 C0 24.79 0 12.58 0 0 Z M7 7 C7 14.59 7 22.18 7 30 C16.9 30 26.8 30 37 30 C37 22.41 37 14.82 37 7 C27.1 7 17.2 7 7 7 Z M-154 19 C-154 21.64 -154 24.28 -154 27 C-111.1 27 -68.2 27 -24 27 C-24 24.36 -24 21.72 -24 19 C-66.9 19 -109.8 19 -154 19 Z M-154 54 C-154 73.47 -154 92.94 -154 113 C-152.02 113 -150.04 113 -148 113 C-148 98.48 -148 83.96 -148 69 C-130.84 69 -113.68 69 -96 69 C-96 83.52 -96 98.04 -96 113 C-72.24 113 -48.48 113 -24 113 C-24 93.53 -24 74.06 -24 54 C-66.9 54 -109.8 54 -154 54 Z M-141 76 C-141 88.21 -141 100.42 -141 113 C-136.05 113 -131.1 113 -126 113 C-126 100.79 -126 88.58 -126 76 C-130.95 76 -135.9 76 -141 76 Z M-118 76 C-118 88.21 -118 100.42 -118 113 C-113.38 113 -108.76 113 -104 113 C-104 100.79 -104 88.58 -104 76 C-108.62 76 -113.24 76 -118 76 Z " fill="#43403F" transform="translate(212,90)"/>
<path d="M0 0 C2.70567626 1.82339052 4.53728718 3.07457436 6 6 C6.79943395 12.50967643 5.439086 15.74649101 1.6015625 21.01171875 C-0.13557167 23.16830726 -1.92404175 25.16357539 -4 27 C-0.37 27.33 3.26 27.66 7 28 C7 29.98 7 31.96 7 34 C-0.59 34 -8.18 34 -16 34 C-14.88081725 28.40408627 -14.88081725 28.40408627 -11.875 25.25 C-11.25367188 24.56808594 -10.63234375 23.88617188 -9.9921875 23.18359375 C-9.33476562 22.46300781 -8.67734375 21.74242187 -8 21 C-6.64465437 19.45655507 -5.3105749 17.89413758 -4 16.3125 C-3.401875 15.60738281 -2.80375 14.90226563 -2.1875 14.17578125 C-0.73114123 12.00277721 -0.73114123 12.00277721 -1.3125 9.23046875 C-1.539375 8.49441406 -1.76625 7.75835937 -2 7 C-3.84725052 6.30840599 -3.84725052 6.30840599 -6 6 C-9.12474627 7.63473516 -9.12474627 7.63473516 -9.6875 10.125 C-9.790625 10.74375 -9.89375 11.3625 -10 12 C-11.98 12 -13.96 12 -16 12 C-16.34338883 8.3085701 -16.27811415 6.45322305 -14.3125 3.25 C-9.74348213 -1.1955309 -6.14107169 -1.53526792 0 0 Z " fill="#43403F" transform="translate(145,158)"/>
<path d="M0 0 C1.32 0 2.64 0 4 0 C4 7.92 4 15.84 4 24 C5.65 24 7.3 24 9 24 C9 25.65 9 27.3 9 29 C7.35 29 5.7 29 4 29 C4 31.31 4 33.62 4 36 C2.02 36 0.04 36 -2 36 C-2 33.69 -2 31.38 -2 29 C-7.28 29 -12.56 29 -18 29 C-17.10523187 24.52615933 -16.7308105 23.18270398 -14.19921875 19.78515625 C-13.63396484 19.01623047 -13.06871094 18.24730469 -12.48632812 17.45507812 C-11.89271484 16.66552734 -11.29910156 15.87597656 -10.6875 15.0625 C-9.52380553 13.4915769 -8.36102509 11.91997626 -7.19921875 10.34765625 C-6.64411621 9.60660645 -6.08901367 8.86555664 -5.51708984 8.10205078 C-4.18432632 6.25539903 -3.0028518 4.38419796 -1.83203125 2.43359375 C-1.22746094 1.63050781 -0.62289062 0.82742187 0 0 Z M-3 15 C-3.89270954 16.09466678 -4.73993574 17.22669092 -5.5625 18.375 C-6.01753906 19.00148437 -6.47257813 19.62796875 -6.94140625 20.2734375 C-8.17423258 21.94663098 -8.17423258 21.94663098 -8 24 C-6.02 24 -4.04 24 -2 24 C-2 21.03 -2 18.06 -2 15 C-2.33 15 -2.66 15 -3 15 Z " fill="#43403F" transform="translate(170,157)"/>
</svg>
