<svg xmlns="http://www.w3.org/2000/svg" width="146.213" height="203.537" viewBox="0 0 146.213 203.537"><path d="M978.156,926.657a1.987,1.987,0,0,0-1.991,1.991V941.7a1.987,1.987,0,0,0,1.991,1.991h45.835a1.987,1.987,0,0,0,1.991-1.991V928.648a1.987,1.987,0,0,0-1.991-1.991Zm-29.019,20.889a15.953,15.953,0,0,0-15.905,15.905v119.207a15.953,15.953,0,0,0,15.905,15.905H1053.01a15.953,15.953,0,0,0,15.905-15.905V963.451a15.953,15.953,0,0,0-15.905-15.905Zm20.352,16.566h63.169a1.987,1.987,0,0,1,1.991,1.991v4.971a1.987,1.987,0,0,1-1.991,1.991H969.489a1.987,1.987,0,0,1-1.991-1.991V966.1a1.987,1.987,0,0,1,1.991-1.991Zm-10.327,25.368h37.859v47.752H959.162c-2.409,0-4.348-2.387-4.348-5.352V994.831C954.814,991.866,956.754,989.479,959.162,989.479Zm45.964,0h37.859c2.409,0,4.348,2.386,4.348,5.351v37.048c0,2.965-1.939,5.352-4.348,5.352h-37.859Zm-50.143,68.252h22.478a1.192,1.192,0,0,1,1.195,1.195v7.094a1.192,1.192,0,0,1-1.195,1.195H954.984a1.192,1.192,0,0,1-1.195-1.195v-7.094A1.192,1.192,0,0,1,954.984,1057.732Zm69.7,0h22.478a1.192,1.192,0,0,1,1.195,1.195v7.094a1.192,1.192,0,0,1-1.195,1.195h-22.478a1.192,1.192,0,0,1-1.195-1.195v-7.094A1.192,1.192,0,0,1,1024.686,1057.732Zm-70.2,45.028-26.52,27.435h24.19l10.458-10.818h76.918l10.458,10.818h24.19l-26.52-27.435h-24.19l9.016,9.327H969.661l9.016-9.327Z" transform="translate(-927.967 -926.657)"/></svg>