<?xml version="1.0" encoding="UTF-8"?><svg id="b" xmlns="http://www.w3.org/2000/svg" width="323.864" height="183.879" viewBox="0 0 323.864 183.879"><defs><style>.d{fill:#7abee6;}.d,.e,.f{stroke-width:0px;}.e{fill:#211715;}.f{fill:#fff;}</style></defs><g id="c"><path class="f" d="M72.362,105.002c0,34.863,0,62.217,0,62.223,79.519,0,141.64,0,230,0,0-27.727,0-46.016,0-72.006H72.362c0,3.314,0,6.58,0,9.783Z"/><path class="f" d="M34.112,104.212c0-3.404,0-6.809,0-10.213h-11.75v73.227c3.968,0,7.884,0,11.75,0,0-21.004,0-42.009,0-63.013Z"/><path class="f" d="M51.227,48.02V4.04c0-1.105-.895-2-2-2H7.247c-1.105,0-2,.895-2,2v44.978c0-.551.448-.999,1-.999h43.979c.552,0,1,.448,1,1"/><path class="d" d="M159.002,151.289v-56.07h143.36v56.081h-143.36v-.011Z"/><path class="d" d="M139.002,134.429v32.8h-66.64v-51.23h66.64v18.43Z"/><path class="e" d="M321.932,165.225c-22.524,0-45.048,0-67.572,0-20.046,0-40.093,0-60.139,0-19.156,0-38.312,0-57.467,0-19.852,0-39.704,0-59.556,0-22.135,0-44.27,0-66.406,0-2.953,0-5.906,0-8.86,0-2.574,0-2.578,4,0,4,22.525,0,45.05,0,67.575,0,20.047,0,40.094,0,60.141,0,19.156,0,38.312,0,57.467,0,19.852,0,39.703,0,59.555,0,22.134,0,44.269,0,66.403,0,2.953,0,5.906,0,8.859,0,2.574,0,2.578-4,0-4h0Z"/><path class="e" d="M24.362,167.229v-99.75c0-2.574-4-2.578-4,0v99.75c0,2.574,4,2.578,4,0h0Z"/><path class="e" d="M36.112,167.229v-99.75c0-2.574-4-2.578-4,0v99.75c0,2.574,4,2.578,4,0h0Z"/><rect class="f" x="5.247" y="48.02" width="45.979" height="45.979"/><path class="e" d="M7.247,91.999v-41.371c0-.233.167-1.39,0-1.569.214.228-1.428.715-.85.961.161.068.505,0,.678,0h40.492c.729,0,1.553.108,2.275,0,.052-.008.346.042.379,0-.215.266-.728-1.291-.995-.942-.029.038.011.165,0,.212-.151.652,0,1.525,0,2.19v39.921c0,.179.01.361,0,.54-.005.082-.037.061-.018.058-.465.074-1.003,0-1.472,0H8.073c-.228,0-.457,0-.685,0-.219,0-.142-.019-.141,0-.206-2.548-4.207-2.57-4,0,.191,2.37,1.828,3.945,4.213,4,.744.017,1.492,0,2.236,0h34.232c1.753,0,3.529.084,5.28,0,2.315-.111,3.931-1.808,4.018-4.107.024-.643,0-1.292,0-1.935v-22.189c0-6.15.183-12.33,0-18.477-.054-1.802-1.146-3.155-3.023-3.27-.513-.031-1.038,0-1.551,0H7.113c-.955,0-1.844.005-2.668.622-1.043.782-1.198,1.931-1.198,3.112v42.245c0,2.574,4,2.578,4,0Z"/><path class="e" d="M7.247,48.02V5.93c0-.51.015-1.022,0-1.532-.003-.101-.009-.21,0-.311.003-.028.035-.053.002-.047.876-.168,1.949,0,2.835,0h38.391c.235,0,.517-.045.749,0-.083-.016,0,.011.002.038.012.112,0,.233,0,.346,0,3.897,0,7.793,0,11.69v31.905c0,2.574,4,2.578,4,0V5.236c0-2.186-.517-4.398-2.99-5.06-1.076-.288-2.362-.136-3.459-.136H7.795C5.321.04,3.347,1.509,3.247,4.131c-.138,3.612,0,7.256,0,10.869v33.019c0,2.574,4,2.578,4,0h0Z"/><path class="e" d="M70.362,95.219v72c0,2.574,4,2.578,4,0v-72c0-2.574-4-2.578-4,0h0Z"/><path class="e" d="M300.362,95.219v72.01c0,2.574,4,2.578,4,0v-72.01c0-2.574-4-2.578-4,0h0Z"/><path class="e" d="M136.998,95.219v72.01c0,2.574,4,2.578,4,0v-72.01c0-2.574-4-2.578-4,0h0Z"/><path class="e" d="M103.68,116.961v50.268c0,2.574,4,2.578,4,0v-50.268c0-2.574-4-2.578-4,0h0Z"/><path class="e" d="M156.998,95.219v56.081c0,2.574,4,2.578,4,0v-56.081c0-2.574-4-2.578-4,0h0Z"/><path class="e" d="M185.671,95.219v56.081c0,2.574,4,2.578,4,0v-56.081c0-2.574-4-2.578-4,0h0Z"/><path class="e" d="M214.344,95.219v56.081c0,2.574,4,2.578,4,0v-56.081c0-2.574-4-2.578-4,0h0Z"/><path class="e" d="M243.016,95.219v56.081c0,2.574,4,2.578,4,0v-56.081c0-2.574-4-2.578-4,0h0Z"/><path class="e" d="M271.689,95.219v56.081c0,2.574,4,2.578,4,0v-56.081c0-2.574-4-2.578-4,0h0Z"/><path class="e" d="M158.998,117.999h142.267c2.574,0,2.578-4,0-4h-142.267c-2.574,0-2.578,4,0,4h0Z"/><path class="e" d="M158.998,153.3h142.267c2.574,0,2.578-4,0-4h-142.267c-2.574,0-2.578,4,0,4h0Z"/><path class="e" d="M72.362,117.999h66.636c2.574,0,2.578-4,0-4h-66.636c-2.574,0-2.578,4,0,4h0Z"/><rect class="f" x="67.362" y="48.02" width="240" height="47.199" rx="2" ry="2"/><path class="e" d="M305.362,50.02v30.112c0,4.258,0,8.516,0,12.774,0,.471.164.27-.201.313-.402.048-.841,0-1.245,0H82.156c-4.097,0-8.264-.223-12.357,0-.118.006-.24.003-.359,0-.151-.004-.08-.009-.079-.005-.178-.98,0-2.158,0-3.149v-17.2c0-6.064,0-12.128,0-18.192,0-1.44-.133-2.951,0-4.386.039-.426-.186-.223.218-.268,1.187-.131,2.464,0,3.656,0h230.185c.495,0,.997.025,1.491,0,.119-.006.241,0,.36,0,.184,0,.093.044.09,0,.206,2.548,4.207,2.57,4,0-.192-2.382-1.859-3.947-4.236-4-.448-.01-.897,0-1.345,0H72.597c-1.053,0-2.114-.04-3.166,0-2.422.092-4.016,1.874-4.069,4.247-.033,1.467,0,2.939,0,4.407,0,11.931,0,23.862,0,35.793,0,1.158-.15,2.463.098,3.609.433,2.005,2.215,3.104,4.157,3.144,1.289.026,2.58,0,3.869,0h230.836c.326,0,.655.013.981,0,2.464-.095,4.015-1.928,4.059-4.313.203-11.001,0-22.024,0-33.027v-9.859c0-2.574-4-2.578-4,0Z"/><path class="f" d="M153.429,144.378c-1.602,0-3.189,0-4.733,0,.615,3.576,2.723,13.179,3.104,15.122l.279,1.421c7.895,0,17.062,0,24.957,0,.972-5.514,1.944-11.027,2.916-16.541-.004,0-13.729,0-26.523-.001Z"/><path class="e" d="M170.814,160.286c.354-5.092.759-10.181,1.105-15.274.073-1.079-.972-2-2-2-1.143,0-1.927.918-2,2-.346,5.093-.751,10.182-1.105,15.274-.075,1.079.973,2,2,2,1.145,0,1.925-.918,2-2h0Z"/><path class="e" d="M156.725,145.417c.332,4.958.716,9.913,1.072,14.869.078,1.077.864,2,2,2,1.022,0,2.078-.917,2-2-.357-4.956-.74-9.911-1.072-14.869-.072-1.078-.868-2-2-2-1.027,0-2.073.917-2,2h0Z"/><path class="e" d="M155.266,176.466c-.315-.061-2.026-.352-3.372.883-.99.908-1.417,2.307-1.11,3.606.386,1.633,1.809,2.589,3.092,2.85.198.04,2.209.414,3.558-1.012,1.285-1.357,1.206-3.539.199-4.894-.767-1.032-1.89-1.341-2.367-1.433Z"/><path class="e" d="M172.42,176.466c-.315-.061-2.026-.352-3.372.883-.99.908-1.417,2.307-1.11,3.606.386,1.633,1.809,2.589,3.092,2.85.198.04,2.209.414,3.558-1.012,1.285-1.357,1.206-3.539.199-4.894-.767-1.032-1.89-1.341-2.367-1.433Z"/><path class="e" d="M179.947,142.379c-8.406,0-16.812,0-25.217-.001-1.472,0-2.955-.051-4.426,0-1.546.053-2.961.679-3.334,2.346-.245,1.094.216,2.435.432,3.517.238,1.19.481,2.38.726,3.568.479,2.323.968,4.644,1.458,6.965.155.734.26,1.501.524,2.203.765,2.034,2.72,1.943,4.536,1.943,7.463,0,14.926,0,22.388,0,2.574,0,2.578-4,0-4-4.015,0-8.03,0-12.046,0-2.013,0-4.025,0-6.038,0-.987,0-1.974,0-2.961,0-.448,0-.896,0-1.344,0-.295,0-.591,0-.886,0-.463-.094-.565-.057-.308.111l.514.883c-.422-1.067-.548-2.317-.784-3.438-.33-1.568-.66-3.137-.985-4.706-.328-1.579-.653-3.159-.968-4.741-.066-.331-.132-.662-.196-.993-.113-.577.028-1.112-.44-.216s-.356.447.126.557c.226.051.591,0,.837,0,.562,0,1.125,0,1.687,0,7.315,0,14.63.001,21.945.001,1.586,0,3.172,0,4.758,0,2.574,0,2.578-4,0-4h0Z"/><path class="e" d="M150.356,154.649h25.97c2.574,0,2.578-4,0-4h-25.97c-2.574,0-2.578,4,0,4h0Z"/><path class="e" d="M151.996,176.838c4.326,0,8.652,0,12.978,0h7.337c1.857,0,3.811-.145,4.359-2.376.88-3.581,1.295-7.345,1.935-10.975l3.008-17.058,1.05-5.956c.023-.133.163-.512.113-.639-.186-.464-.67.689-.839.498.167.189,1.65,0,1.901,0h1.738c2.574,0,2.578-4,0-4-2.323,0-5.882-.637-6.638,2.331-.277,1.086-.395,2.238-.589,3.341l-2.801,15.888-2.515,14.261c-.042.235-.316.994-.215,1.217.173.381.841-.715.909-.532-.009-.025-.431.002-.459,0-2.015-.175-4.124,0-6.145,0-5.042,0-10.085,0-15.127,0-2.574,0-2.578,4,0,4h0Z"/></g></svg>