<?xml version="1.0" standalone="no"?>
<!DOCTYPE svg PUBLIC "-//W3C//DTD SVG 20010904//EN"
 "http://www.w3.org/TR/2001/REC-SVG-20010904/DTD/svg10.dtd">
<svg version="1.0" xmlns="http://www.w3.org/2000/svg"
 width="1934.000000pt" height="1599.000000pt" viewBox="0 0 1934.000000 1599.000000"
 preserveAspectRatio="xMidYMid meet">

<g transform="translate(0.000000,1599.000000) scale(0.100000,-0.100000)"
fill="#000000" stroke="none">
<path d="M15816 15539 c-15 -17 -26 -43 -26 -59 0 -24 -31 -99 -61 -150 -5 -8
-13 -24 -18 -35 -13 -26 -107 -162 -151 -216 -71 -89 -266 -273 -335 -317 -71
-45 -108 -55 -191 -49 -72 4 -94 10 -171 48 -145 72 -208 135 -277 274 -41 85
-90 113 -161 94 -55 -16 -76 -66 -94 -229 -3 -36 -12 -75 -19 -87 -7 -12 -12
-31 -12 -42 0 -11 -6 -35 -14 -53 -15 -34 -51 -116 -67 -153 -5 -11 -18 -33
-29 -50 -11 -16 -23 -37 -26 -45 -24 -52 -105 -158 -163 -212 -89 -82 -159
-116 -282 -139 -78 -14 -120 -2 -202 58 -66 48 -118 50 -159 4 -32 -36 -36
-73 -13 -128 22 -52 20 -254 -3 -308 -33 -79 -64 -105 -127 -105 -50 0 -85
-36 -85 -88 0 -63 49 -102 129 -102 99 0 179 53 228 151 55 111 63 138 63 203
0 35 3 77 6 92 l6 29 101 1 c100 0 187 13 223 32 11 6 39 18 63 28 47 19 138
81 192 129 56 50 113 124 176 230 92 155 173 337 173 390 0 44 15 46 56 7 90
-86 222 -163 350 -206 77 -26 241 -25 320 2 104 35 148 67 323 237 124 121
215 229 293 348 46 70 68 92 68 68 0 -5 6 -16 13 -23 6 -7 35 -47 62 -88 70
-104 78 -114 179 -214 112 -111 307 -258 400 -301 99 -45 171 -57 281 -45 50
5 110 16 135 25 113 41 254 128 319 199 28 30 51 34 51 8 0 -17 30 -112 51
-162 35 -81 42 -96 50 -110 5 -8 13 -24 19 -35 5 -11 23 -42 40 -70 16 -27 33
-57 37 -65 11 -25 83 -122 117 -158 134 -145 353 -239 539 -231 l82 4 6 -100
c3 -55 10 -109 16 -120 6 -11 25 -51 43 -88 35 -72 89 -128 149 -153 49 -21
129 -18 169 6 85 52 52 170 -49 170 -43 0 -89 38 -116 99 -22 46 -26 292 -5
313 20 20 15 101 -9 127 -46 50 -84 48 -169 -9 -79 -52 -130 -67 -186 -52 -24
7 -53 12 -64 12 -25 0 -145 57 -180 85 -62 50 -122 116 -164 180 -25 39 -46
73 -46 76 0 4 -18 37 -40 73 -22 36 -40 72 -40 80 0 8 -4 17 -9 21 -5 3 -19
38 -31 78 -39 131 -36 116 -69 310 -9 54 -42 95 -81 98 -91 8 -108 -7 -188
-166 -32 -63 -143 -158 -236 -204 -79 -39 -99 -44 -176 -49 -94 -5 -126 4
-204 60 -21 15 -43 28 -48 28 -21 0 -171 121 -258 209 -132 132 -288 369 -305
463 -4 20 -19 50 -34 67 -22 25 -36 31 -69 31 -33 0 -45 -6 -66 -31z"/>
<path d="M15755 13900 c-11 -5 -51 -9 -90 -10 -38 -1 -92 -6 -120 -11 -27 -6
-85 -14 -128 -19 -43 -4 -90 -13 -105 -18 -15 -6 -53 -13 -85 -16 -32 -2 -64
-9 -70 -14 -7 -6 -34 -12 -62 -15 -53 -5 -130 -23 -155 -36 -9 -5 -35 -12 -58
-16 -23 -4 -66 -16 -95 -27 -28 -11 -61 -22 -72 -25 -11 -3 -32 -15 -47 -25
-15 -10 -82 -47 -150 -82 -179 -92 -286 -156 -365 -219 -10 -9 -47 -39 -83
-68 -233 -188 -464 -491 -562 -739 -6 -14 -16 -38 -22 -55 -41 -98 -73 -218
-95 -355 -5 -30 -14 -77 -21 -105 -13 -57 -19 -483 -9 -690 8 -161 25 -305 39
-319 6 -6 10 -21 10 -34 0 -14 5 -42 12 -63 11 -38 10 -40 -30 -84 -36 -38
-75 -107 -103 -180 -4 -11 -15 -60 -25 -109 -16 -85 -16 -92 0 -160 22 -90 43
-141 94 -233 21 -37 133 -144 196 -188 56 -39 70 -67 45 -92 -7 -7 -17 -58
-23 -115 -8 -78 -15 -103 -26 -105 -8 -1 -41 22 -74 51 -32 30 -87 68 -122 85
-54 26 -75 31 -138 31 -53 0 -77 -4 -86 -15 -7 -8 -18 -15 -24 -15 -36 -1 -71
-114 -60 -194 l6 -49 -28 8 c-16 4 -55 9 -86 12 -51 4 -61 2 -106 -27 -73 -49
-87 -82 -84 -202 2 -87 5 -106 32 -160 17 -34 44 -79 60 -101 16 -22 27 -43
25 -47 -2 -4 -31 -10 -64 -13 -66 -6 -133 -44 -170 -96 -54 -75 -6 -216 109
-321 94 -86 259 -185 428 -256 80 -34 108 -52 156 -101 63 -63 201 -163 227
-163 11 0 27 -4 37 -9 9 -6 30 -12 45 -16 23 -5 33 -17 53 -63 14 -31 34 -75
44 -97 10 -22 26 -58 35 -80 34 -78 115 -232 136 -259 5 -6 27 -35 49 -64 40
-52 105 -107 145 -122 64 -24 105 -32 176 -33 43 0 89 4 101 10 68 30 167 81
193 98 17 11 38 25 47 30 10 6 72 50 138 99 66 48 126 86 134 83 16 -6 26 -52
26 -123 0 -29 5 -75 10 -101 15 -70 28 -234 39 -503 10 -230 18 -343 42 -565
19 -178 13 -251 -36 -415 -9 -30 -20 -74 -25 -98 -5 -24 -12 -48 -16 -53 -3
-6 -10 -34 -15 -62 -4 -29 -15 -81 -24 -117 -33 -130 -51 -237 -66 -385 -21
-219 -23 -387 -4 -468 18 -75 59 -204 95 -297 12 -30 25 -66 30 -80 5 -14 21
-56 35 -95 15 -38 33 -83 39 -100 6 -16 24 -54 39 -83 15 -30 27 -59 27 -66 0
-7 -52 -64 -115 -127 -94 -94 -121 -127 -151 -189 -44 -90 -55 -126 -61 -204
-5 -65 9 -122 41 -171 30 -44 118 -135 141 -146 11 -5 27 -13 35 -17 78 -45
115 -53 245 -59 111 -5 179 10 265 59 8 4 22 11 30 15 8 3 52 30 97 60 45 29
86 53 91 53 17 0 128 108 167 164 22 30 45 56 51 56 6 0 22 -14 35 -32 77
-102 111 -134 204 -195 39 -25 88 -57 110 -72 58 -38 151 -81 220 -101 73 -21
308 -1 338 29 6 6 17 11 25 11 19 0 87 53 138 106 22 24 55 73 73 110 28 58
32 75 28 123 -6 73 -17 111 -57 196 -26 56 -56 93 -151 190 -66 67 -119 130
-119 140 0 10 14 48 31 84 32 68 35 76 64 151 9 25 22 56 27 70 5 14 17 45 25
70 8 25 21 59 28 75 7 17 21 55 30 85 10 30 22 66 28 80 11 27 21 76 38 184 8
50 7 105 -1 200 -7 72 -15 176 -20 231 -7 96 -19 169 -42 265 -6 25 -13 59
-15 75 -2 17 -8 39 -13 50 -5 11 -11 40 -15 65 -3 25 -10 59 -14 75 -5 17 -17
57 -26 90 -9 33 -22 80 -30 105 -20 67 -28 127 -28 205 0 85 18 324 32 420 6
39 11 148 11 243 0 95 5 203 10 240 6 37 15 119 20 182 13 153 30 320 36 348
7 34 28 27 111 -35 184 -139 297 -209 413 -254 41 -16 197 -16 213 0 6 6 21
11 34 11 28 0 94 40 134 81 31 32 101 125 112 149 4 8 21 38 37 65 17 28 35
60 40 73 6 13 22 49 36 80 43 93 70 154 90 198 17 38 24 43 79 59 98 29 156
66 265 170 67 64 91 80 170 110 55 21 115 51 195 95 252 138 385 300 359 436
-13 72 -116 143 -206 144 -29 0 -48 5 -48 11 0 6 20 42 45 79 25 37 45 72 45
77 0 6 7 24 16 42 12 24 15 55 12 129 -2 83 -6 102 -27 130 -39 55 -92 82
-160 82 -33 0 -63 -4 -66 -10 -3 -5 -14 -10 -24 -10 -16 0 -19 12 -23 89 -6
98 -20 127 -79 163 -42 26 -152 25 -212 -2 -47 -21 -124 -77 -167 -123 -26
-28 -60 -36 -60 -14 0 41 -22 185 -31 203 -20 38 -7 67 44 100 77 50 227 212
227 244 0 6 4 18 9 28 57 111 72 205 50 314 -26 135 -65 219 -137 298 -20 21
-30 41 -26 50 4 8 10 34 15 58 5 24 12 49 16 55 4 7 11 44 15 82 4 39 12 102
18 140 15 87 8 762 -8 815 -6 19 -16 64 -22 100 -25 135 -29 156 -43 200 -7
25 -19 58 -25 73 -7 16 -12 33 -12 38 0 5 -4 17 -9 27 -5 9 -16 33 -24 52 -63
144 -163 320 -214 375 -10 11 -39 47 -65 80 -72 94 -273 283 -388 366 -125 91
-192 130 -365 217 -57 29 -76 37 -209 96 -32 14 -68 26 -80 26 -11 0 -52 16
-91 36 -75 37 -138 62 -195 75 -299 70 -309 71 -640 75 -168 2 -314 -1 -325
-6z m564 -201 c197 -24 407 -76 494 -123 26 -13 73 -32 105 -41 31 -9 66 -20
77 -25 11 -5 43 -19 70 -31 152 -66 395 -194 415 -219 3 -3 21 -17 40 -30 19
-14 42 -30 50 -37 8 -7 33 -26 55 -43 176 -138 373 -378 464 -564 28 -57 51
-108 51 -111 0 -4 7 -23 16 -43 9 -21 22 -52 30 -70 8 -18 14 -42 14 -53 0
-11 5 -29 10 -39 6 -10 15 -47 21 -82 5 -35 18 -108 27 -163 13 -78 17 -168
17 -415 0 -358 -9 -453 -57 -618 -15 -50 -98 -83 -98 -38 0 7 -7 27 -15 42 -8
16 -15 36 -15 45 0 8 -4 19 -8 25 -4 5 -16 36 -26 69 -10 33 -22 71 -28 85 -5
13 -18 51 -29 85 -11 33 -25 69 -30 80 -12 27 -59 155 -66 180 -11 41 -45 104
-69 129 -24 24 -99 52 -172 63 -18 3 -35 10 -38 14 -3 5 -13 9 -22 9 -9 0 -44
14 -77 30 -33 16 -64 30 -68 30 -15 0 -170 107 -207 142 -119 113 -290 324
-290 358 0 17 -40 51 -71 60 -46 14 -90 -11 -146 -82 -104 -131 -201 -213
-334 -281 -151 -78 -266 -100 -394 -77 -27 5 -70 12 -95 16 -68 9 -180 59
-180 81 0 6 25 38 56 70 68 71 171 224 184 275 13 47 -6 90 -50 113 -61 32
-109 9 -166 -79 -55 -85 -66 -99 -174 -206 -137 -137 -217 -186 -384 -236 -71
-21 -338 -27 -370 -8 -17 11 -10 21 82 118 56 59 102 111 102 115 0 5 18 36
40 68 51 77 69 153 45 189 -9 14 -33 32 -52 41 -33 13 -40 13 -75 -3 -30 -14
-53 -40 -112 -128 -71 -106 -150 -191 -260 -281 -27 -22 -54 -45 -60 -50 -20
-19 -134 -105 -139 -105 -3 0 -32 -18 -65 -40 -67 -45 -229 -130 -247 -130 -7
0 -33 -18 -58 -40 -44 -39 -107 -147 -107 -183 0 -9 -4 -19 -10 -22 -5 -3 -10
-16 -10 -29 0 -12 -7 -31 -15 -42 -8 -10 -15 -27 -15 -36 0 -9 -6 -29 -14 -45
-8 -15 -22 -53 -31 -83 -9 -30 -19 -62 -22 -70 -40 -105 -65 -180 -70 -200 -3
-14 -12 -34 -19 -45 -8 -11 -14 -27 -14 -37 0 -21 -18 -23 -55 -6 -19 9 -30
26 -44 77 -76 256 -81 803 -11 1146 26 128 48 199 104 330 36 84 110 225 132
250 13 15 24 31 24 34 0 3 10 17 23 31 12 14 40 48 61 75 39 49 183 196 241
245 96 81 252 187 345 234 110 56 189 94 255 121 22 9 49 20 60 25 130 53 187
71 310 96 39 8 95 19 125 26 85 18 224 38 340 49 58 5 123 13 145 18 58 13
454 13 554 0z m579 -1641 c28 -29 70 -75 93 -102 98 -110 171 -176 266 -238
39 -27 74 -48 77 -48 4 0 42 -17 84 -38 42 -20 104 -46 137 -56 142 -44 141
-44 159 -89 9 -24 16 -46 16 -51 0 -4 7 -24 16 -44 9 -21 22 -52 30 -70 8 -18
14 -41 14 -50 0 -10 4 -22 9 -27 5 -6 19 -44 31 -85 12 -41 26 -79 30 -85 4
-5 10 -21 13 -35 3 -14 15 -50 27 -80 12 -30 24 -66 27 -80 3 -14 9 -29 13
-35 5 -5 11 -28 15 -50 24 -142 106 -185 198 -105 84 74 135 65 186 -33 31
-60 34 -72 35 -163 1 -76 -3 -107 -16 -133 -10 -19 -18 -39 -18 -44 0 -37
-204 -205 -299 -246 -53 -22 -91 -62 -91 -93 0 -11 -12 -45 -26 -76 -62 -136
-138 -284 -156 -308 l-20 -25 -22 20 c-25 23 -97 51 -134 51 -175 0 -275 -213
-228 -490 7 -41 -11 -68 -65 -95 -19 -10 -38 -24 -42 -31 -4 -8 -14 -14 -21
-14 -7 0 -35 -12 -62 -26 -78 -41 -97 -51 -139 -69 -22 -10 -48 -22 -57 -26
-52 -26 -366 -93 -513 -110 -55 -6 -134 -15 -175 -20 -290 -34 -468 -34 -745
0 -38 5 -115 14 -170 20 -55 7 -121 16 -147 22 -26 6 -71 14 -100 19 -166 27
-235 50 -417 139 -138 66 -229 125 -243 157 -8 18 -7 34 6 67 21 56 20 135 -3
222 -34 133 -90 204 -176 226 -62 16 -143 -2 -179 -38 -35 -34 -42 -27 -110
110 -31 62 -65 126 -76 142 -13 20 -20 47 -20 80 0 77 -39 126 -111 139 -21 4
-42 13 -49 20 -6 8 -42 35 -81 61 -80 55 -151 131 -182 195 -18 37 -22 63 -22
151 0 97 2 110 29 163 36 72 62 90 114 81 27 -4 51 -18 78 -46 80 -82 169 -35
195 106 4 22 21 78 39 125 18 47 37 101 42 120 6 19 14 40 18 45 4 6 10 21 13
35 6 27 23 78 44 127 7 17 13 38 13 46 0 9 5 19 10 22 6 3 10 14 10 23 0 9 7
30 15 46 8 15 15 34 15 42 0 13 19 60 49 122 11 22 31 39 61 53 52 24 53 24
145 74 65 34 175 106 201 130 6 6 26 19 46 29 35 19 36 19 79 -1 118 -55 193
-73 304 -73 86 0 256 24 287 41 9 5 26 9 37 9 27 0 136 47 203 88 21 12 44 22
51 22 7 0 23 -10 35 -22 11 -13 51 -38 89 -57 37 -19 76 -38 87 -43 52 -27
284 -51 406 -44 121 8 148 16 293 88 98 48 121 60 127 68 3 4 19 14 35 23 17
8 69 51 115 96 47 44 88 80 92 81 3 0 29 -24 56 -52z m-3098 -2370 c0 -7 21
-55 46 -108 26 -52 50 -104 54 -115 39 -109 44 -133 40 -210 -8 -171 -8 -174
28 -206 38 -34 64 -36 103 -8 38 27 59 68 59 115 0 65 49 212 83 251 33 37 54
15 62 -63 10 -88 -9 -203 -61 -379 -19 -64 -20 -86 -9 -209 9 -86 -6 -201 -32
-251 -21 -40 -80 -102 -123 -129 -84 -53 -252 -111 -320 -111 -94 0 -164 37
-280 149 -59 57 -163 126 -190 126 -11 0 -178 80 -215 102 -146 91 -215 149
-215 181 0 20 -1 20 90 -3 89 -23 127 -33 145 -40 78 -31 125 -42 149 -36 42
10 86 64 86 104 0 41 -49 119 -95 150 -107 74 -265 280 -265 346 0 29 4 36 19
36 11 0 26 -7 35 -15 8 -8 18 -15 21 -15 15 0 95 -69 203 -174 152 -150 201
-175 262 -134 31 21 35 29 37 73 3 49 2 51 -68 125 -39 41 -82 91 -94 110 -12
19 -30 41 -39 49 -9 7 -16 21 -16 30 0 9 -4 21 -9 26 -5 6 -18 38 -30 73 -37
108 -26 130 41 83 67 -46 151 -141 229 -258 131 -196 158 -217 236 -178 57 28
63 78 28 215 -16 64 -33 243 -27 288 3 23 32 32 32 10z m4265 -99 c0 -57 -5
-122 -11 -144 -45 -156 -49 -186 -30 -224 18 -34 62 -61 100 -61 38 0 78 40
160 163 104 154 145 205 202 253 69 57 93 69 100 49 12 -30 -18 -141 -44 -167
-7 -7 -12 -18 -12 -25 0 -20 -60 -103 -124 -171 -33 -34 -68 -75 -78 -90 -36
-55 -13 -121 51 -143 51 -18 102 14 244 154 127 125 234 204 262 193 56 -21
-62 -211 -214 -343 -108 -93 -130 -124 -130 -185 -1 -40 3 -50 30 -72 44 -37
68 -40 140 -15 35 12 87 27 114 34 28 7 76 20 108 29 71 20 77 20 77 2 0 -38
-163 -159 -310 -231 -30 -15 -67 -33 -82 -41 -14 -8 -32 -14 -39 -14 -33 0
-109 -50 -193 -129 -52 -48 -111 -95 -132 -105 -22 -11 -46 -22 -54 -26 -49
-23 -109 -21 -220 8 -68 17 -205 91 -250 134 -65 61 -74 81 -95 190 -17 92
-17 114 1 226 7 45 -9 136 -33 184 -7 15 -13 40 -13 56 0 16 -6 45 -14 63 -14
35 -20 103 -18 197 2 59 32 103 57 82 34 -28 63 -112 89 -255 14 -82 29 -108
72 -131 28 -15 36 -16 64 -4 55 23 59 39 57 202 -1 106 2 151 11 160 6 6 12
18 12 26 0 16 15 52 70 167 21 44 41 88 44 98 3 10 12 17 19 14 8 -3 12 -34
12 -108z m-3630 -698 c6 -12 20 -19 195 -108 74 -38 161 -77 193 -88 31 -10
57 -24 56 -30 0 -5 -39 -41 -87 -80 -48 -38 -143 -125 -211 -192 -67 -68 -127
-123 -132 -123 -5 0 -9 8 -9 17 0 9 -6 24 -13 32 -8 9 -25 36 -38 61 -27 48
-26 80 3 170 7 19 12 103 13 185 1 83 3 153 3 158 3 10 20 9 27 -2z m2995 -8
c1 -10 2 -83 3 -163 2 -99 8 -170 21 -223 18 -78 18 -79 -1 -106 -11 -14 -23
-36 -27 -49 -4 -12 -11 -22 -16 -22 -5 0 -10 -10 -12 -22 -5 -32 -22 -32 -51
-1 -116 128 -158 168 -269 260 -71 57 -128 107 -128 112 0 5 10 11 23 14 67
16 332 140 368 173 8 8 23 14 33 14 9 0 19 7 22 15 8 21 34 19 34 -2z m-1495
-343 c121 1 238 2 260 3 110 5 -10 -124 -135 -144 -25 -4 -63 -12 -85 -18 -66
-18 -187 -3 -253 31 -71 36 -122 84 -122 116 0 24 1 24 58 17 31 -4 156 -6
277 -5z m244 -3379 c42 -69 61 -110 61 -133 0 -37 -25 -175 -47 -258 -29 -112
-36 -137 -63 -220 -15 -47 -35 -112 -45 -145 -10 -33 -22 -70 -26 -83 -5 -13
-9 -32 -9 -43 0 -11 -17 -38 -38 -62 -21 -23 -50 -61 -66 -84 -26 -39 -46 -48
-46 -22 0 14 -48 80 -77 105 -14 11 -28 36 -33 55 -4 19 -13 48 -19 64 -5 17
-22 71 -37 120 -14 50 -32 106 -39 125 -7 19 -20 62 -29 95 -10 33 -21 74 -26
90 -14 46 -32 162 -37 236 -5 66 -4 67 52 157 l57 91 121 4 c67 1 159 4 204 5
l81 2 61 -99z m-434 -1173 c55 -107 47 -257 -19 -346 -60 -82 -115 -126 -281
-229 -64 -39 -163 -73 -215 -73 -54 0 -142 22 -175 44 -44 29 -92 86 -105 125
-14 43 -11 56 31 146 24 50 25 51 136 158 l90 87 81 0 c129 0 257 32 352 86
70 41 85 41 105 2z m409 24 c5 -9 90 -51 151 -75 51 -20 95 -27 227 -36 l107
-7 100 -102 c162 -165 188 -256 101 -354 -87 -100 -240 -124 -380 -60 -40 18
-133 73 -140 83 -3 4 -25 17 -50 30 -56 29 -136 108 -181 179 -29 45 -44 154
-31 216 18 87 42 134 68 134 13 0 25 -4 28 -8z"/>
<path d="M14963 11458 c-12 -6 -51 -45 -87 -88 -84 -101 -143 -131 -258 -135
-65 -2 -98 -32 -98 -90 0 -44 30 -85 63 -85 9 0 19 -4 22 -10 17 -28 179 -1
250 42 17 10 39 22 51 27 49 22 194 209 194 251 0 71 -73 119 -137 88z"/>
<path d="M16771 11444 c-24 -20 -31 -34 -31 -60 0 -31 22 -90 39 -104 3 -3 25
-30 48 -61 60 -78 142 -132 254 -168 44 -14 146 -15 154 -1 3 6 15 10 25 10
20 0 60 56 60 85 0 50 -65 104 -109 90 -30 -9 -126 20 -169 52 -21 15 -62 56
-90 90 -28 34 -62 69 -74 77 -33 23 -72 20 -107 -10z"/>
<path d="M14721 10849 c-29 -31 -34 -65 -15 -101 19 -36 52 -67 72 -68 8 0 28
-6 45 -14 18 -8 43 -16 57 -19 32 -7 98 -31 106 -40 6 -5 -65 -110 -86 -127
-3 -3 -27 -37 -53 -76 -40 -62 -47 -79 -47 -122 0 -41 4 -54 22 -66 36 -25
101 -20 137 10 17 14 31 31 31 37 0 7 10 23 23 37 12 14 29 34 37 46 8 12 42
56 74 99 107 142 126 198 86 262 -19 32 -76 66 -130 78 -17 4 -32 11 -35 16
-4 5 -15 9 -25 9 -11 0 -34 6 -52 14 -122 51 -214 60 -247 25z"/>
<path d="M16959 10856 c-14 -7 -39 -16 -55 -19 -16 -2 -54 -14 -84 -26 -30
-12 -78 -30 -107 -40 -28 -11 -60 -27 -71 -38 -26 -24 -46 -84 -39 -115 14
-55 269 -403 302 -412 11 -3 37 -6 57 -6 68 0 101 81 61 153 -17 31 -101 147
-113 157 -3 3 -19 22 -34 42 -29 38 -29 68 -2 68 9 0 30 6 48 14 18 7 58 22
88 32 70 22 97 40 116 75 20 41 17 72 -11 103 -20 22 -33 26 -77 26 -29 0 -65
-6 -79 -14z"/>
<path d="M15815 10426 c-27 -13 -66 -37 -85 -54 -19 -18 -38 -32 -42 -32 -20
0 -58 -82 -58 -124 0 -38 4 -48 29 -65 47 -34 100 -25 147 24 11 12 41 34 66
49 44 26 48 26 76 12 16 -8 53 -36 83 -61 58 -50 96 -58 139 -28 35 23 40 33
40 74 0 64 -82 153 -190 205 -65 31 -137 31 -205 0z"/>
<path d="M15785 9938 c-176 -44 -268 -82 -336 -139 -53 -44 -136 -145 -164
-199 -10 -19 -22 -44 -28 -55 -6 -11 -16 -58 -23 -105 -16 -107 -2 -179 47
-239 37 -47 57 -61 121 -85 41 -15 70 -17 220 -12 355 12 493 14 509 5 9 -5
75 -9 145 -10 103 -1 135 2 159 15 17 9 35 16 40 16 6 1 22 11 36 23 81 70
109 157 90 287 -7 46 -16 90 -20 99 -51 105 -134 214 -198 262 -42 32 -70 48
-135 80 -32 16 -103 31 -188 40 -47 5 -104 14 -128 19 -50 12 -93 11 -147 -2z
m313 -229 c54 -13 143 -53 170 -78 30 -26 96 -122 116 -168 29 -67 15 -78 -36
-29 -96 92 -247 136 -463 136 -167 0 -290 -43 -394 -136 l-51 -46 1 34 c0 18
9 47 20 63 10 17 22 37 26 45 3 8 26 38 50 66 61 73 117 97 293 128 40 7 216
-3 268 -15z m-65 -364 c73 -7 116 -22 157 -54 23 -18 24 -20 6 -27 -10 -4 -42
0 -70 9 -28 8 -71 21 -96 29 -61 18 -265 17 -307 -1 -18 -7 -41 -10 -50 -6
-31 12 54 48 132 55 70 7 98 7 228 -5z"/>
<path d="M4196 11447 c-30 -22 -46 -86 -46 -184 0 -174 -71 -293 -141 -240
-28 21 -57 82 -64 133 -4 27 -17 59 -28 72 -47 51 -135 9 -124 -60 24 -143 66
-221 149 -274 31 -20 51 -24 113 -24 43 0 75 4 75 10 0 6 6 10 13 10 16 0 58
44 83 88 10 17 21 32 25 32 4 0 29 -21 55 -46 75 -70 198 -118 219 -84 3 6 15
10 26 10 21 0 126 99 169 159 46 64 47 64 88 25 56 -53 104 -74 170 -74 68 0
83 8 173 105 128 135 139 149 139 181 0 38 -36 74 -74 74 -26 0 -75 -45 -199
-185 l-36 -40 -33 20 c-40 23 -68 51 -90 90 -14 27 -15 35 -2 70 7 22 14 50
14 61 0 31 -49 77 -75 70 -11 -3 -25 -6 -31 -6 -34 0 -74 -66 -74 -122 0 -27
-25 -95 -39 -108 -4 -3 -13 -18 -21 -35 -8 -16 -43 -59 -76 -94 -52 -53 -66
-62 -84 -56 -29 9 -87 66 -128 127 -31 46 -32 49 -32 157 0 98 -2 113 -20 131
-23 23 -68 26 -94 7z"/>
<path d="M6937 11346 c-21 -22 -29 -36 -61 -105 -6 -14 -11 -77 -11 -145 0
-106 3 -127 23 -168 40 -80 122 -117 212 -97 108 25 100 26 100 -22 0 -87 54
-179 124 -214 32 -17 156 -20 184 -6 9 5 31 15 47 22 17 8 35 17 40 21 6 4 31
23 56 42 46 34 69 34 69 -1 0 -31 92 -143 117 -143 7 0 13 -4 13 -8 0 -5 24
-15 54 -22 93 -22 185 19 302 135 98 97 148 167 139 196 -19 59 -87 77 -126
33 -72 -79 -168 -174 -197 -194 -49 -33 -105 -31 -137 6 -42 49 -44 126 -6
271 14 52 1 90 -35 103 -47 18 -72 2 -124 -79 -47 -73 -176 -211 -198 -211 -6
0 -12 -4 -14 -9 -1 -6 -24 -15 -50 -22 -58 -16 -89 -3 -106 45 -25 68 -6 163
58 291 60 120 50 185 -29 187 -41 1 -56 -13 -93 -91 -56 -119 -157 -191 -255
-182 -16 1 -33 57 -33 110 0 47 27 134 55 177 21 33 19 47 -11 78 -34 34 -77
34 -107 2z"/>
<path d="M2660 11074 c-60 -22 -74 -33 -110 -84 -22 -31 -25 -45 -24 -128 0
-56 5 -97 12 -104 7 -7 12 -20 12 -30 0 -10 5 -27 10 -38 6 -11 15 -29 20 -40
6 -11 10 -24 10 -30 0 -6 16 -44 36 -85 20 -41 34 -79 32 -85 -1 -5 -25 11
-52 36 -93 88 -206 173 -273 206 -126 61 -233 36 -281 -66 -54 -114 1 -238
187 -425 56 -55 101 -103 101 -107 0 -3 -12 -3 -27 1 -76 19 -219 31 -268 22
-128 -26 -200 -125 -160 -224 16 -40 77 -104 125 -132 76 -44 206 -103 268
-123 23 -7 42 -16 42 -20 0 -5 6 -8 14 -8 8 0 32 -10 55 -22 33 -17 42 -28 47
-57 26 -159 156 -334 305 -409 58 -30 73 -42 71 -57 -1 -11 -7 -63 -11 -115
-13 -143 -68 -240 -128 -226 -99 25 -637 37 -768 18 -146 -21 -186 -43 -313
-172 -46 -47 -172 -229 -172 -249 0 -6 -3 -11 -8 -11 -7 0 -21 -27 -42 -85 -6
-16 -18 -46 -27 -65 -8 -19 -18 -44 -23 -55 -4 -11 -12 -31 -18 -45 -5 -14
-17 -54 -27 -90 -9 -36 -21 -75 -26 -88 -5 -13 -9 -34 -9 -47 0 -13 -5 -27
-10 -30 -5 -3 -10 -24 -10 -45 0 -21 -4 -42 -10 -45 -5 -3 -10 -21 -10 -38 0
-18 -6 -66 -14 -107 -24 -127 -29 -262 -16 -429 11 -144 11 -161 -5 -197 -9
-21 -22 -50 -27 -64 -6 -14 -14 -33 -19 -42 -5 -10 -9 -27 -9 -37 0 -11 -4
-22 -9 -25 -4 -3 -11 -20 -15 -38 -3 -18 -13 -58 -22 -88 -9 -30 -20 -74 -25
-97 -5 -24 -14 -64 -20 -90 -25 -116 -38 -297 -28 -413 6 -63 14 -132 20 -152
21 -85 33 -123 41 -133 4 -5 8 -15 8 -22 0 -17 52 -127 62 -131 4 -2 8 -8 8
-13 0 -12 11 -25 85 -103 60 -63 162 -136 190 -136 8 0 15 -4 15 -9 0 -5 10
-11 23 -14 12 -3 56 -15 97 -28 100 -29 336 -33 415 -6 60 21 139 59 143 70 2
4 8 7 13 7 25 0 121 99 176 183 45 69 51 73 81 58 25 -14 160 -76 207 -95 22
-9 48 -21 57 -26 10 -6 25 -10 33 -10 8 0 15 -4 15 -10 0 -5 7 -10 15 -10 8 0
23 -4 33 -9 37 -20 144 -61 158 -61 8 0 14 -4 14 -10 0 -5 9 -10 19 -10 11 0
23 -4 26 -10 3 -5 17 -10 30 -10 13 0 27 -4 30 -10 3 -6 13 -10 22 -10 14 0
66 -20 105 -41 10 -5 27 -9 38 -9 11 0 20 -4 20 -8 0 -4 20 -14 44 -21 25 -7
47 -19 50 -27 3 -8 1 -38 -5 -66 -17 -76 0 -345 30 -478 20 -94 29 -122 61
-205 17 -44 86 -177 100 -193 8 -9 28 -35 45 -57 39 -53 97 -107 170 -158 93
-65 250 -137 298 -137 13 0 27 -4 32 -9 25 -23 373 -40 438 -22 20 6 56 16 80
23 51 14 151 59 155 70 2 4 9 8 16 8 36 0 256 222 256 259 0 6 3 11 8 11 4 0
12 10 18 23 6 12 23 44 38 70 14 26 26 55 26 63 0 7 5 14 10 14 6 0 10 8 10
18 0 10 3 22 7 26 4 4 19 42 33 84 23 70 28 77 54 80 16 2 33 -1 39 -7 6 -6
21 -11 34 -11 13 0 31 -4 41 -9 9 -6 34 -13 55 -16 31 -5 44 -16 79 -63 48
-65 136 -153 176 -173 15 -8 29 -16 32 -19 10 -11 116 -56 160 -69 25 -7 61
-17 80 -23 48 -16 327 -15 342 0 7 7 19 12 28 12 19 0 114 44 152 71 28 21 74
24 122 10 17 -5 67 -15 111 -22 125 -19 185 -29 248 -39 31 -6 83 -14 115 -20
31 -5 75 -12 97 -15 22 -3 87 -13 145 -21 58 -8 116 -17 130 -20 14 -3 59 -9
100 -15 41 -5 104 -14 140 -19 36 -5 88 -12 115 -15 28 -3 82 -10 120 -15 102
-15 329 -41 510 -59 50 -5 102 -13 117 -16 30 -8 33 -14 63 -155 9 -41 21 -86
27 -100 6 -14 14 -34 18 -45 22 -58 69 -148 112 -212 57 -82 190 -213 218
-213 6 0 10 -4 10 -10 0 -5 5 -10 10 -10 6 0 28 -11 50 -25 22 -14 46 -25 55
-25 8 0 15 -4 15 -10 0 -5 9 -10 19 -10 11 0 23 -5 26 -10 3 -5 15 -10 26 -10
10 0 27 -4 37 -9 23 -12 141 -37 222 -47 275 -33 511 45 688 226 48 50 152
198 152 218 0 6 5 12 10 12 6 0 10 9 10 20 0 11 5 20 10 20 6 0 10 6 10 13 0
7 11 37 25 65 14 29 25 58 25 66 0 8 5 18 10 21 6 3 10 17 10 30 0 13 5 27 10
30 6 3 10 17 10 31 0 13 4 32 9 42 5 9 17 53 26 97 10 44 22 93 26 109 5 16 9
39 9 52 0 13 16 48 35 78 19 30 35 59 35 65 0 5 4 11 8 13 7 3 51 91 71 143
16 38 33 80 42 97 5 10 9 26 9 36 0 10 3 22 7 26 9 8 31 90 40 144 3 18 9 35
14 38 5 3 9 20 9 38 0 17 4 36 9 41 5 6 11 30 14 55 3 25 12 92 21 150 53 337
53 722 1 1005 -10 50 -19 107 -22 128 -3 20 -9 40 -14 43 -5 3 -9 16 -9 29 0
13 -4 27 -10 30 -5 3 -10 17 -10 30 0 13 -4 27 -10 30 -5 3 -10 13 -10 20 0
20 -48 120 -88 184 -46 73 -155 181 -183 181 -24 0 3 35 116 152 66 68 138
146 160 173 22 28 42 52 45 55 16 14 80 111 80 120 0 6 5 10 10 10 6 0 10 6
10 14 0 8 4 16 8 18 15 5 112 214 133 283 19 66 23 70 70 72 108 6 190 33 294
98 34 21 175 163 175 176 0 25 54 34 240 41 199 7 277 14 295 28 6 4 21 10 35
13 41 10 97 73 105 116 11 64 -3 109 -49 155 -58 60 -149 97 -299 121 -32 5
-36 9 -27 21 7 8 21 14 31 14 10 0 21 5 24 10 3 6 13 10 21 10 20 0 158 66
223 108 134 84 186 192 143 293 -38 88 -131 128 -250 108 -71 -11 -134 -26
-167 -39 -11 -5 -45 -17 -75 -27 -30 -10 -71 -25 -90 -35 -19 -9 -37 -14 -39
-12 -3 3 38 48 91 102 176 179 210 231 212 328 1 66 -13 105 -54 142 -63 58
-153 67 -249 26 -34 -15 -61 -31 -61 -35 0 -5 -4 -9 -10 -9 -19 0 -152 -126
-238 -225 l-43 -50 5 35 c3 19 10 60 15 90 21 113 23 158 11 211 -16 67 -26
86 -69 126 -74 72 -203 70 -276 -3 -60 -60 -103 -169 -150 -379 -13 -60 -23
-100 -41 -163 -10 -34 -60 -14 -141 54 -39 34 -58 49 -98 79 -22 16 -42 32
-45 35 -3 3 -30 18 -60 35 -47 25 -66 29 -130 29 -107 1 -172 -39 -221 -135
-22 -43 -26 -132 -8 -176 28 -70 45 -103 52 -103 4 0 7 -5 7 -10 0 -6 5 -16
11 -23 35 -40 102 -138 120 -175 23 -46 22 -69 -5 -165 -26 -94 -22 -247 10
-343 14 -44 29 -83 35 -89 16 -16 10 -37 -27 -79 -54 -63 -62 -77 -89 -158
-11 -32 -23 -58 -27 -58 -4 0 -8 -5 -8 -11 0 -10 -61 -101 -110 -164 -21 -28
-207 -214 -255 -256 -22 -19 -69 -57 -105 -84 -36 -28 -66 -53 -68 -57 -5 -12
-52 -10 -52 2 0 6 -7 10 -15 10 -8 0 -23 4 -33 9 -9 5 -42 19 -72 31 -30 12
-62 28 -70 34 -8 7 -42 23 -75 35 -33 13 -69 27 -80 31 -11 5 -67 25 -125 45
-171 59 -156 49 -180 123 -11 37 -25 76 -30 87 -4 11 -11 29 -13 40 -3 11 -24
81 -46 157 -23 75 -41 142 -41 150 0 7 -9 24 -20 38 -11 14 -20 37 -20 52 0
15 -4 30 -10 33 -5 3 -10 19 -10 35 0 16 -4 31 -9 34 -5 3 -11 20 -14 38 -11
64 -32 147 -40 154 -4 4 -7 20 -7 35 0 15 -4 31 -10 34 -5 3 -10 19 -10 35 0
16 -4 31 -9 34 -5 3 -11 20 -14 38 -3 18 -13 60 -22 93 -9 33 -19 75 -22 93
-3 18 -9 35 -14 38 -5 3 -9 16 -9 30 0 13 -4 32 -9 42 -5 9 -17 44 -26 77 -30
106 -37 130 -46 147 -5 10 -9 25 -9 33 0 8 -4 23 -9 33 -5 9 -17 44 -26 77 -9
33 -20 68 -26 77 -5 10 -9 27 -9 38 0 11 -4 20 -10 20 -5 0 -10 9 -10 20 0 11
-4 28 -9 38 -11 19 -32 70 -51 122 -7 19 -17 39 -22 44 -4 6 -8 18 -8 28 0 10
-3 18 -8 18 -4 0 -15 19 -25 41 -18 41 -79 135 -114 174 -10 11 -40 38 -68 60
-27 22 -51 43 -53 48 -2 4 -10 7 -18 7 -8 0 -14 4 -14 8 0 21 -331 182 -465
227 -27 9 -58 21 -67 26 -10 5 -27 9 -37 9 -11 0 -23 5 -26 10 -3 6 -15 10
-26 10 -10 0 -27 4 -37 9 -9 5 -46 17 -82 26 -36 9 -75 21 -88 26 -13 5 -34 9
-47 9 -13 0 -27 5 -30 10 -3 6 -22 10 -41 10 -19 0 -34 4 -34 9 0 5 -21 11
-47 14 -27 4 -77 14 -113 22 -36 9 -83 18 -105 21 -22 3 -49 9 -60 14 -11 5
-38 11 -60 14 -22 3 -65 10 -95 15 -66 11 -110 18 -210 33 -210 30 -317 43
-480 57 -58 5 -120 12 -138 15 -55 9 -714 27 -798 21 -44 -2 -159 -7 -256 -10
-98 -3 -188 -8 -200 -11 -13 -3 -58 -8 -101 -11 -42 -3 -80 -10 -83 -14 -3 -5
-29 -9 -59 -9 -30 0 -57 -4 -60 -10 -3 -5 -19 -10 -35 -10 -30 0 -218 -44
-257 -61 -13 -5 -33 -13 -45 -18 -13 -5 -49 -21 -81 -35 -32 -14 -62 -26 -67
-26 -6 0 -10 -4 -10 -10 0 -5 -9 -10 -21 -10 -23 0 -23 9 1 175 24 169 20 264
-13 335 -47 99 -169 140 -272 90 -25 -12 -45 -25 -45 -28 0 -4 -10 -18 -23
-32 -25 -28 -49 -75 -66 -132 -6 -21 -16 -53 -21 -71 -5 -18 -10 -44 -10 -58
0 -57 -24 -91 -36 -51 -3 9 -9 26 -14 37 -4 11 -16 43 -25 70 -16 45 -64 148
-100 215 -16 28 -98 108 -132 127 -25 14 -120 25 -143 17z m115 -187 c64 -67
113 -179 200 -457 35 -115 59 -164 91 -189 30 -24 52 -26 88 -10 46 21 62 76
86 289 17 148 39 238 73 298 16 26 25 32 53 32 30 0 37 -5 50 -35 20 -48 18
-97 -12 -307 -14 -101 -24 -201 -21 -223 10 -96 71 -155 158 -155 41 0 77 9
289 70 41 12 99 22 129 22 47 1 58 -3 78 -26 33 -38 31 -87 -6 -128 -15 -17
-86 -70 -157 -117 -164 -110 -192 -146 -205 -264 -11 -101 -32 -173 -66 -235
-35 -63 -92 -132 -109 -132 -8 0 -31 11 -52 25 -160 106 -379 78 -521 -66
l-51 -52 -52 24 c-116 54 -214 188 -240 329 -16 86 -57 119 -219 184 -142 56
-291 131 -315 157 -9 10 -14 26 -10 35 5 14 20 15 104 11 53 -3 115 -9 137
-15 22 -5 97 -24 167 -42 137 -35 164 -35 204 5 54 54 25 108 -126 234 -251
210 -357 340 -335 412 9 29 44 23 110 -16 79 -48 141 -101 330 -286 88 -86
171 -162 184 -168 41 -22 93 -16 118 14 42 48 34 77 -85 319 -106 214 -150
324 -164 408 -10 53 -9 69 1 82 22 27 52 18 96 -27z m2784 -707 c140 -13 280
-27 381 -40 211 -27 321 -42 380 -51 133 -21 181 -29 238 -39 31 -5 100 -16
152 -25 52 -9 118 -20 145 -26 46 -9 428 -85 485 -96 14 -3 95 -23 180 -45
186 -48 320 -92 376 -124 77 -43 179 -233 308 -569 32 -82 62 -159 67 -170 4
-11 29 -81 54 -155 25 -74 49 -142 52 -150 3 -8 9 -28 13 -45 5 -16 20 -68 35
-115 40 -129 91 -323 114 -435 7 -33 17 -76 22 -96 17 -66 22 -261 7 -289 -23
-42 -123 -54 -348 -40 -102 6 -203 13 -225 16 -22 3 -87 9 -145 14 -198 18
-528 60 -890 114 -103 16 -162 25 -287 46 -35 5 -89 14 -120 19 -83 14 -218
38 -288 51 -33 7 -80 16 -105 20 -202 35 -594 126 -719 166 -26 9 -69 26 -98
39 -72 33 -86 65 -107 240 -27 224 -51 362 -97 555 -33 138 -48 358 -49 690 0
418 18 517 97 538 51 13 230 14 372 2z m-963 -25 c79 -20 125 -46 150 -83 20
-29 64 -156 79 -227 3 -16 10 -48 15 -70 33 -154 78 -459 101 -686 12 -112 6
-166 -21 -204 -4 -5 -17 -37 -30 -70 -13 -33 -32 -72 -42 -87 -10 -14 -18 -30
-18 -34 0 -11 -48 -144 -61 -166 -5 -10 -9 -26 -9 -36 0 -10 -4 -22 -8 -28 -5
-5 -17 -36 -26 -69 -10 -33 -26 -85 -36 -115 -17 -53 -22 -70 -54 -185 -11
-39 -18 -49 -32 -47 -11 1 -43 5 -72 9 -29 3 -55 10 -58 14 -3 5 -15 9 -27 9
-34 0 -182 56 -271 103 -77 40 -181 129 -217 185 -10 16 -36 28 -88 41 -68 18
-110 45 -111 73 0 4 -13 36 -28 70 -25 54 -57 160 -93 299 -5 20 -9 77 -9 126
0 64 -6 108 -21 152 l-20 63 54 57 c97 102 158 237 172 383 4 40 13 83 21 96
8 12 72 60 142 106 178 118 232 181 232 272 0 37 4 46 23 54 38 15 299 12 363
-5z m6504 -580 c27 -32 14 -163 -34 -355 -26 -99 -46 -195 -46 -213 0 -72 53
-118 113 -98 39 13 82 57 203 206 179 220 317 331 378 303 73 -33 -12 -142
-391 -498 -93 -87 -113 -111 -118 -143 -8 -43 11 -81 51 -99 32 -15 101 2 202
48 41 19 75 34 77 34 3 0 30 12 62 26 166 76 323 124 407 124 62 0 74 -15 51
-60 -30 -58 -169 -131 -390 -205 -198 -66 -242 -88 -262 -129 -35 -74 28 -129
162 -141 164 -14 301 -42 368 -75 117 -57 56 -79 -248 -90 -169 -6 -229 -11
-260 -24 -43 -18 -85 -53 -85 -70 0 -21 -89 -114 -142 -148 -69 -46 -138 -68
-209 -68 -51 0 -58 3 -64 23 -33 110 -115 206 -220 258 -64 31 -77 34 -160 34
-49 0 -104 -4 -121 -8 -30 -8 -32 -6 -51 35 -11 24 -26 76 -33 117 -14 77 -11
107 30 261 16 61 7 147 -20 195 -12 22 -57 88 -98 147 -97 137 -108 166 -82
218 43 85 120 67 280 -65 41 -34 102 -80 135 -101 53 -34 67 -38 122 -39 110
0 143 45 198 276 64 268 96 339 151 339 17 0 37 -7 44 -15z m-7755 -349 c48
-29 75 -57 106 -111 18 -33 23 -57 25 -140 2 -121 61 -387 94 -430 4 -5 11
-21 15 -35 28 -90 216 -437 274 -506 14 -17 48 -60 76 -95 27 -35 95 -110 150
-167 122 -126 139 -154 138 -239 -1 -155 -136 -287 -277 -271 -65 8 -129 44
-216 125 -324 302 -613 802 -740 1283 -22 84 -34 183 -34 290 0 105 2 120 26
171 52 109 149 164 268 153 32 -3 71 -15 95 -28z m1698 -558 c3 -29 13 -98 22
-153 42 -266 58 -484 51 -705 -6 -190 -17 -261 -54 -340 -36 -78 -76 -110
-135 -110 -106 0 -161 64 -187 218 -14 83 -4 203 31 372 21 104 23 112 69 275
20 72 108 327 132 385 6 14 15 36 21 50 33 84 41 85 50 8z m5611 -632 c108
-63 156 -188 121 -318 -26 -101 -129 -295 -204 -384 -14 -17 -44 -53 -66 -80
-22 -27 -94 -104 -159 -171 -115 -119 -145 -139 -172 -114 -16 16 -296 160
-406 210 -27 12 -48 27 -48 35 0 7 28 35 63 62 212 165 473 483 502 612 15 68
104 151 185 174 49 13 138 1 184 -26z m-2983 -741 c67 -99 111 -325 111 -568
-1 -206 -23 -366 -78 -557 -15 -50 -77 -161 -101 -180 -20 -16 -28 -17 -44 -7
-24 14 -82 133 -97 197 -6 25 -15 65 -21 90 -15 62 -31 235 -31 331 0 284 80
616 173 717 29 31 56 24 88 -23z m-1346 -1160 c141 -36 263 -125 347 -253 49
-76 59 -102 84 -212 18 -81 18 -118 0 -200 -41 -193 -154 -343 -319 -422 -100
-49 -165 -61 -283 -56 -247 12 -446 164 -527 403 -16 47 -21 85 -21 175 0 125
15 186 70 289 43 81 147 179 235 223 123 61 142 65 264 67 52 1 116 -5 150
-14z m3433 -456 c197 -45 362 -194 433 -389 20 -56 23 -82 22 -185 -1 -104 -4
-129 -27 -189 -36 -95 -65 -142 -128 -208 -128 -133 -260 -185 -455 -176 -110
5 -120 8 -233 61 -83 39 -214 167 -253 247 -97 203 -82 415 42 598 80 118 199
199 351 241 49 13 192 13 248 0z"/>
<path d="M6185 9914 c-49 -25 -83 -63 -115 -130 -38 -79 -39 -116 -3 -144 46
-36 86 -15 113 59 18 52 48 91 70 91 25 0 49 -40 60 -103 15 -78 20 -87 47
-98 33 -12 69 -2 86 25 28 41 -16 202 -71 260 -51 54 -128 71 -187 40z"/>
<path d="M7626 9700 c-64 -32 -111 -102 -137 -204 -14 -57 -6 -91 27 -112 23
-16 28 -16 58 -2 28 14 34 24 46 73 14 58 45 115 67 122 20 7 51 -37 69 -99
21 -70 55 -96 97 -77 41 19 52 50 37 106 -27 100 -70 161 -134 192 -56 26 -80
26 -130 1z"/>
<path d="M6180 9263 c-46 -32 -66 -60 -97 -143 -93 -241 -92 -636 2 -836 53
-115 133 -123 198 -20 70 112 107 286 107 518 0 183 -16 284 -63 391 -23 52
-77 107 -105 107 -10 0 -29 -8 -42 -17z"/>
<path d="M7616 9037 c-86 -82 -140 -295 -140 -557 -1 -229 36 -389 105 -462
57 -60 113 -45 167 46 66 112 102 289 102 502 0 298 -73 504 -180 504 -10 0
-34 -15 -54 -33z"/>
<path d="M5510 8685 c-15 -28 -9 -160 10 -194 12 -24 58 -29 78 -9 15 15 16
181 2 209 -16 29 -73 26 -90 -6z"/>
<path d="M5375 8610 c-16 -17 -16 -25 -5 -85 13 -71 37 -99 77 -89 26 7 43 43
32 69 -4 11 -8 37 -8 57 -1 63 -57 91 -96 48z"/>
<path d="M8078 8323 c-8 -10 -29 -49 -47 -88 -40 -84 -35 -118 16 -123 36 -4
56 19 97 112 31 70 31 71 6 96 -25 25 -52 26 -72 3z"/>
<path d="M8205 8198 c-47 -68 -75 -115 -75 -129 0 -26 35 -51 66 -47 31 3 98
81 109 126 15 60 -65 99 -100 50z"/>
<path d="M9100 10602 c-68 -33 -215 -179 -289 -286 -8 -12 -18 -23 -21 -26 -3
-3 -19 -23 -36 -45 -16 -22 -37 -49 -46 -59 -10 -11 -18 -23 -18 -26 0 -4 -11
-20 -25 -36 -14 -16 -25 -35 -25 -41 0 -7 -4 -13 -10 -13 -5 0 -10 -4 -10 -10
0 -5 -8 -19 -17 -29 -60 -71 -97 -191 -73 -237 24 -44 70 -20 70 35 0 17 12
52 26 78 76 138 317 456 413 546 44 42 71 57 71 42 0 -9 -106 -170 -131 -200
-34 -40 -157 -180 -201 -229 -47 -51 -49 -89 -5 -94 23 -3 36 5 70 44 23 27
58 64 77 83 31 31 58 64 130 154 8 11 20 24 25 31 13 15 61 89 84 130 37 65
40 71 55 106 22 54 27 76 20 94 -10 25 -71 20 -134 -12z"/>
<path d="M9530 10043 c-93 -30 -231 -131 -365 -267 -107 -108 -138 -145 -253
-295 -63 -83 -72 -101 -70 -131 6 -64 88 -75 88 -12 0 31 27 74 79 129 13 14
16 13 26 -1 17 -22 39 -20 88 7 53 30 185 115 210 136 10 9 27 23 37 31 9 8
39 33 66 55 84 69 159 150 183 197 8 15 15 48 15 74 1 37 -4 49 -23 65 -22 18
-50 23 -81 12z m15 -114 c-23 -71 -455 -416 -455 -363 0 22 246 265 315 311
72 48 137 84 143 79 2 -3 1 -15 -3 -27z"/>
<path d="M12150 5452 c-25 -2 -49 -7 -54 -13 -6 -5 -17 -9 -26 -9 -8 0 -49
-16 -90 -36 -193 -94 -287 -195 -305 -329 -11 -82 -13 -85 -52 -85 -74 0 -226
-95 -270 -171 l-16 -28 -45 31 c-24 17 -65 50 -90 74 -48 46 -51 48 -76 38
-42 -16 12 -87 129 -169 83 -58 85 -61 85 -102 0 -17 5 -35 10 -38 6 -3 10
-15 10 -26 0 -10 4 -27 9 -37 5 -9 17 -37 27 -62 63 -157 223 -300 394 -351
66 -20 223 -17 290 6 62 21 103 56 94 79 -8 21 -38 20 -103 -5 -161 -61 -354
-14 -485 120 -61 62 -71 75 -108 141 -26 48 -70 161 -64 167 2 2 28 -6 57 -18
96 -38 143 -49 211 -49 100 0 148 23 127 62 -8 15 -19 17 -89 11 -52 -4 -96
-1 -127 7 -66 18 -174 70 -180 87 -18 46 110 143 220 168 35 7 67 -2 67 -20 0
-18 68 -87 102 -104 22 -11 30 -12 43 -1 36 30 1 120 -66 164 l-42 28 6 57 c5
65 23 104 69 156 79 91 270 185 378 188 101 3 188 -69 268 -222 71 -135 92
-203 92 -303 0 -65 -5 -98 -21 -134 -31 -74 -31 -74 -96 -53 -39 13 -85 19
-150 19 l-93 0 -20 -32 c-16 -27 -17 -35 -6 -61 6 -17 28 -44 49 -60 34 -28
43 -30 111 -30 59 1 84 6 126 27 28 14 55 26 59 26 19 0 86 -80 108 -130 19
-42 24 -66 20 -103 -6 -72 -62 -172 -144 -258 -66 -69 -103 -94 -186 -128 -45
-18 -149 -14 -202 9 -58 25 -72 25 -80 1 -7 -24 2 -48 23 -55 9 -3 35 -12 57
-20 47 -18 172 -21 212 -5 106 43 181 92 232 153 14 15 30 34 37 40 16 16 77
114 90 146 35 81 43 156 23 207 -31 77 -56 117 -96 154 -24 21 -43 43 -43 48
0 4 8 23 17 42 34 67 43 105 43 198 0 85 -5 118 -30 186 -10 29 -83 179 -90
185 -3 3 -12 18 -20 35 -23 45 -120 138 -170 162 -49 23 -89 30 -160 25z m248
-846 c25 -15 -5 -29 -67 -30 -45 -1 -64 4 -80 18 -12 11 -17 22 -12 25 13 9
143 -2 159 -13z"/>
<path d="M3835 2549 c-958 -12 -2114 -50 -2264 -73 -14 -3 -60 -7 -101 -11
-108 -9 -172 -25 -159 -41 13 -16 41 -22 174 -34 334 -32 895 -55 1915 -77
474 -10 3418 -10 3885 0 1219 27 1859 58 2043 97 28 7 50 15 48 19 -57 91
-2935 153 -5541 120z"/>
</g>
</svg>
